<!--?xml version="1.0" standalone="no"?-->

<svg version="1.0" xmlns="http://www.w3.org/2000/svg" width="284.000000pt" height="300.000000pt" viewBox="0 0 284.000000 300.000000" preserveAspectRatio="xMidYMid meet">
<g transform="translate(0.000000,300.000000) scale(0.100000,-0.100000)" fill="#ED0100" stroke="none">
<path class="node" id="node1" d="M1681 2335 c-26 -87 -26 -99 -3 -90 9 4 35 13 57 20 76 24 170 72
198 103 l29 30 -59 7 c-33 3 -92 5 -131 3 l-71 -3 -20 -70z"></path>
<path class="node" id="node2" d="M958 2382 c-15 -6 -12 -13 17 -54 40 -54 102 -94 163 -104 51 -8 53
0 17 78 -14 29 -25 61 -25 71 0 15 -10 17 -77 16 -43 0 -86 -3 -95 -7z"></path>
<path class="node" id="node3" d="M1565 2383 c-11 -2 -42 -11 -68 -20 l-49 -15 7 -72 c4 -39 10 -74 14
-78 10 -11 84 45 113 87 15 22 31 55 34 73 7 34 1 37 -51 25z"></path>
<path class="node" id="node4" d="M2006 2368 c-8 -35 -63 -95 -110 -123 -50 -29 -175 -75 -208 -76 -22
0 -22 -1 -3 -9 11 -5 30 -9 43 -9 69 -2 211 -104 243 -176 34 -75 24 -83 -33
-29 -29 28 -69 60 -89 72 -62 38 -197 64 -242 46 -12 -4 -9 -16 15 -65 23 -45
31 -79 35 -138 7 -95 -7 -111 -31 -36 -22 69 -68 131 -130 173 -65 43 -88 48
-143 27 -96 -37 -158 -123 -172 -239 l-7 -61 -12 40 c-28 96 -8 200 50 262
l31 32 -29 7 c-41 11 -157 -12 -220 -43 -29 -14 -74 -46 -99 -70 -25 -23 -48
-43 -50 -43 -8 0 43 89 72 129 33 43 104 88 154 96 21 4 39 10 39 13 -1 4 -24
18 -53 31 -59 28 -173 137 -183 176 -4 17 -12 24 -23 21 -9 -2 -55 -14 -102
-25 -225 -54 -396 -164 -514 -330 -211 -301 -285 -674 -200 -1018 15 -59 31
-112 35 -118 4 -5 13 -28 20 -50 19 -61 96 -201 158 -285 63 -86 179 -204 267
-271 62 -48 211 -127 280 -149 22 -7 45 -16 50 -20 13 -9 162 -55 243 -75 122
-29 242 -38 417 -31 174 8 221 13 360 39 450 86 754 345 890 760 68 210 90
357 82 557 -6 136 -36 307 -66 375 -79 177 -120 245 -211 348 -92 104 -285
227 -442 281 -93 32 -104 32 -112 4z"></path>
<path class="node" id="node5" d="M1230 2355 c0 -20 105 -125 125 -125 15 0 16 7 10 48 -7 51 -15 59
-58 69 -15 3 -30 10 -33 14 -9 15 -44 10 -44 -6z"></path>
</g>
<g transform="translate(0.000000,300.000000) scale(0.100000,-0.100000)" fill="#4A9648" stroke="none">
<path class="node" id="node6" d="M1473 2938 c-79 -143 -108 -280 -108 -520 0 -150 -3 -188 -13 -188
-29 0 -117 106 -142 171 -26 66 -34 183 -18 257 4 17 4 32 -1 32 -18 0 -60
-78 -72 -132 -15 -71 0 -176 36 -257 36 -77 34 -85 -17 -77 -105 16 -188 108
-237 260 l-29 91 -8 -40 c-12 -58 -8 -137 10 -179 22 -52 121 -148 183 -177
29 -13 52 -27 53 -31 0 -3 -18 -9 -39 -13 -50 -8 -121 -53 -154 -96 -29 -40
-80 -129 -72 -129 2 0 25 20 50 43 25 24 70 56 99 70 63 31 179 54 220 43 l29
-7 -31 -32 c-58 -62 -78 -166 -50 -262 l12 -40 7 61 c14 116 76 202 172 239
55 21 78 16 143 -27 62 -42 108 -104 130 -173 24 -75 38 -59 31 36 -4 59 -12
93 -35 138 -24 49 -27 61 -15 65 45 18 180 -8 242 -46 20 -12 60 -44 89 -72
57 -54 67 -46 33 29 -32 72 -174 174 -243 176 -13 0 -32 4 -43 8 -15 6 -11 9
22 14 56 9 176 60 219 92 60 46 88 98 92 174 l4 66 -27 -50 c-38 -72 -82 -114
-151 -146 -73 -33 -177 -69 -183 -63 -3 2 5 38 17 79 40 135 25 226 -51 320
l-25 30 14 -70 c27 -139 13 -255 -37 -324 -33 -46 -99 -93 -113 -81 -5 5 -11
85 -14 177 -4 145 -2 183 17 277 12 60 28 124 36 142 35 85 39 194 6 194 -5 0
-22 -24 -38 -52z"></path>
</g>
<g transform="translate(0.000000,300.000000) scale(0.100000,-0.100000)" fill="#FFFFFF" stroke="none">



</g>
</svg>